# xmcd
#
# Track frame offsets:
#	150
#	46335
#	85814
#	127225
#	174707
#
# Disc length: 3166 seconds
#
# Revision: 0
# Processed by: cddbd v1.5.2PL0 Copyright (c) Steve Scherf et al.
# Submitted via: audiograbber 1.83.01
#
DISCID=400c5c05
DTITLE=Grateful Dead - 93-09-18 Madison Square Garden, New York NY
DYEAR=1900
DGENRE=
TTITLE0=Iko Iko
TTITLE1=Victim Or The Crime
TTITLE2=Uncle John's Band
TTITLE3=Corrina
TTITLE4=Drums
EXTD=
EXTT0=
EXTT1=
EXTT2=
EXTT3=
EXTT4=
PLAYORDER=
